<svg width="512" height="512" viewBox="0 0 512 512" fill="none" xmlns="http://www.w3.org/2000/svg">
<path d="M267.13 213.246H244.582C233.965 213.246 225.361 204.709 225.361 194.181V144.739C225.361 134.667 217.13 126.502 206.976 126.502H179.89V66.0022H206.974C250.816 66.0022 286.353 101.255 286.353 144.742V194.183C286.35 204.709 277.746 213.246 267.13 213.246Z" fill="url(#paint0_linear_221_2)"/>
<path d="M206.973 66H180.182C224.022 66 259.561 101.253 259.561 144.74V194.181C259.561 204.001 252.077 212.079 242.461 213.127C243.157 213.203 243.864 213.249 244.581 213.249H267.129C277.745 213.249 286.349 204.712 286.349 194.184V144.742C286.349 101.253 250.813 66 206.973 66Z" fill="url(#paint1_linear_221_2)"/>
<path opacity="0.31" d="M284.175 126.452C278.724 103.728 263.354 84.8338 242.843 74.5045C227.897 91.4617 220.477 114.514 224.06 138.046C224.887 140.121 225.355 142.374 225.355 144.74L236.981 192.818C239.456 203.058 249.833 209.367 260.157 206.91L282.085 201.691C283.167 201.434 284.198 201.072 285.187 200.649C285.925 198.627 286.346 196.453 286.346 194.179V144.737C286.346 141.434 286.118 138.183 285.719 134.987L284.666 130.625C284.329 129.228 284.182 127.831 284.175 126.452Z" fill="url(#paint2_linear_221_2)"/>
<path d="M244.578 213.249H267.127C277.743 213.249 286.347 204.712 286.347 194.184V144.742C286.347 134.67 294.578 126.505 304.732 126.505H331.816V66.0052H304.732C260.892 66.0052 225.353 101.258 225.353 144.745V194.186C225.358 204.712 233.965 213.249 244.578 213.249Z" fill="url(#paint3_linear_221_2)"/>
<path d="M304.737 66H331.529C287.689 66 252.15 101.253 252.15 144.74V194.181C252.15 204.001 259.633 212.079 269.25 213.127C268.553 213.203 267.847 213.249 267.13 213.249H244.581C233.965 213.249 225.361 204.712 225.361 194.184V144.742C225.359 101.253 260.898 66 304.737 66Z" fill="url(#paint4_linear_221_2)"/>
<path d="M281.909 83.301C281.965 83.2475 282.024 83.194 282.083 83.1379C275.708 87.7494 269.992 93.3704 265.407 99.83C260.735 106.236 257.248 113.461 254.784 120.986C252.44 128.557 251.312 136.487 251.376 144.38C251.522 152.206 251.733 160.022 252.149 167.845V144.742C252.149 119.882 263.77 97.732 281.909 83.301Z" fill="url(#paint5_linear_221_2)"/>
<path d="M46.4728 285.889C35.1678 285.889 26.001 276.798 26.001 265.582V245.693C26.001 234.479 35.1653 225.386 46.4728 225.386C56.6264 225.386 64.8578 217.221 64.8578 207.149V144.74C64.8578 101.253 100.397 66 144.237 66H151.139V126.5H144.237C134.083 126.5 125.852 134.665 125.852 144.737V207.146C125.849 250.636 90.31 285.889 46.4728 285.889Z" fill="url(#paint6_linear_221_2)"/>
<path d="M47.7783 265.582V245.693C47.7783 234.479 56.9425 225.386 68.25 225.386C78.4037 225.386 86.635 217.221 86.635 207.149V143.202C86.635 105.026 114.027 73.204 150.376 66H144.237C100.397 66 64.8578 101.253 64.8578 144.74V207.149C64.8578 217.221 56.6264 225.386 46.4728 225.386C35.1678 225.386 26.001 234.476 26.001 245.693V265.582C26.001 276.796 35.1653 285.889 46.4728 285.889C51.4353 285.889 56.282 285.414 60.9927 284.55C53.2727 281.642 47.7783 274.259 47.7783 265.582Z" fill="url(#paint7_linear_221_2)"/>
<path opacity="0.31" d="M30.8546 249.565L35.1437 268.995C37.562 279.949 48.4763 286.888 59.5191 284.489C60.8272 284.204 62.1327 284.076 63.4202 284.071C86.5466 279.08 105.903 264.101 116.671 243.906C99.7482 228.756 76.5087 221.029 52.6087 224.323C50.6864 224.999 48.6279 225.386 46.4718 225.386C35.429 227.785 28.4363 238.611 30.8546 249.565Z" fill="url(#paint8_linear_221_2)"/>
<path d="M151.138 445.277H144.236C100.396 445.277 64.8568 410.021 64.8568 366.535V304.125C64.8568 294.053 56.6254 285.888 46.4718 285.888C35.1668 285.888 26 276.798 26 265.581V245.693C26 234.479 35.1642 225.386 46.4718 225.386C90.3115 225.386 125.851 260.639 125.851 304.125V366.535C125.851 376.607 134.082 384.772 144.236 384.772H151.138V445.277Z" fill="url(#paint9_linear_221_2)"/>
<path d="M118.334 80.275C118.388 80.2266 118.442 80.1782 118.498 80.1298C111.922 84.5909 105.985 90.1022 101.169 96.4956C96.3122 102.856 92.5191 110.022 89.8952 117.583C87.3433 125.169 85.9453 133.14 85.9196 141.119C85.9582 149.055 86.2434 156.927 86.634 164.832V143.202C86.634 117.473 99.0903 94.6398 118.334 80.275Z" fill="url(#paint10_linear_221_2)"/>
<path d="M118.334 431.001C118.388 431.047 118.442 431.095 118.498 431.144C111.922 426.682 105.985 421.171 101.169 414.78C96.3122 408.417 92.5191 401.252 89.8952 393.693C87.3433 386.107 85.9453 378.133 85.9196 370.157C85.9582 362.221 86.2434 354.349 86.634 346.441V368.074C86.634 393.803 99.0903 416.633 118.334 431.001Z" fill="url(#paint11_linear_221_2)"/>
<path d="M86.6337 368.075V323.938H64.8565V366.538C64.8565 410.025 100.396 445.28 144.235 445.28H150.375C114.026 438.071 86.6337 406.247 86.6337 368.075Z" fill="url(#paint12_linear_221_2)"/>
<path d="M244.872 298.028H267.423C278.039 298.028 286.643 306.565 286.643 317.093V366.535C286.643 376.607 294.874 384.772 305.025 384.772H332.109V445.274H305.025C261.185 445.274 225.649 410.019 225.649 366.532V317.091C225.652 306.565 234.256 298.028 244.872 298.028Z" fill="url(#paint13_linear_221_2)"/>
<path d="M305.028 445.278H331.821C287.979 445.278 252.44 410.023 252.44 366.536V317.094C252.44 307.275 259.926 299.196 269.543 298.149C268.846 298.072 268.14 298.026 267.423 298.026H244.872C234.258 298.026 225.652 306.563 225.652 317.092V366.533C225.652 410.023 261.188 445.278 305.028 445.278Z" fill="url(#paint14_linear_221_2)"/>
<path opacity="0.31" d="M227.826 384.822C233.276 407.546 248.647 426.441 269.157 436.77C284.101 419.815 291.523 396.763 287.941 373.231C287.113 371.156 286.645 368.9 286.645 366.534L275.019 318.457C272.542 308.217 262.167 301.907 251.844 304.365L229.915 309.583C228.831 309.84 227.803 310.202 226.811 310.626C226.073 312.647 225.652 314.819 225.652 317.095V366.537C225.652 369.843 225.88 373.091 226.279 376.29L227.335 380.652C227.672 382.049 227.818 383.443 227.826 384.822Z" fill="url(#paint15_linear_221_2)"/>
<path d="M267.423 298.027H244.872C234.259 298.027 225.652 306.564 225.652 317.092V366.534C225.652 376.606 217.421 384.771 207.267 384.771H180.183V445.274H207.267C251.107 445.274 286.646 410.018 286.646 366.532V317.09C286.646 306.564 278.039 298.027 267.423 298.027Z" fill="url(#paint16_linear_221_2)"/>
<path d="M207.263 445.278H180.472C224.312 445.278 259.851 410.023 259.851 366.536V317.094C259.851 307.275 252.367 299.196 242.748 298.149C243.445 298.072 244.151 298.026 244.868 298.026H267.419C278.035 298.026 286.639 306.563 286.639 317.092V366.533C286.645 410.023 251.103 445.278 207.263 445.278Z" fill="url(#paint17_linear_221_2)"/>
<path d="M230.094 427.976C230.035 428.029 229.979 428.086 229.919 428.139C236.295 423.528 242.008 417.907 246.593 411.447C251.268 405.041 254.755 397.816 257.217 390.289C259.561 382.72 260.689 374.787 260.624 366.892C260.481 359.066 260.27 351.253 259.853 343.432V366.535C259.853 391.392 248.227 413.545 230.094 427.976Z" fill="url(#paint18_linear_221_2)"/>
<path d="M465.531 225.386C476.833 225.386 486 234.476 486 245.693V265.581C486 276.795 476.836 285.888 465.531 285.888C455.377 285.888 447.146 294.053 447.146 304.125V366.535C447.146 410.021 411.607 445.277 367.767 445.277H360.862V384.774H367.767C377.921 384.774 386.149 376.609 386.149 366.537V304.128C386.149 260.641 421.688 225.386 465.531 225.386Z" fill="url(#paint19_linear_221_2)"/>
<path d="M464.222 245.692V265.581C464.222 276.795 455.058 285.888 443.75 285.888C433.597 285.888 425.365 294.053 425.365 304.125V368.072C425.365 406.246 397.976 438.068 361.624 445.274H367.766C411.606 445.274 447.145 410.019 447.145 366.532V304.123C447.145 294.051 455.377 285.886 465.53 285.886C476.833 285.886 485.999 276.795 485.999 265.579V245.69C485.999 234.476 476.835 225.383 465.53 225.383C460.565 225.383 455.721 225.857 451.01 226.721C458.728 229.633 464.222 237.018 464.222 245.692Z" fill="url(#paint20_linear_221_2)"/>
<path opacity="0.31" d="M481.149 261.71L476.86 242.28C474.444 231.326 463.527 224.387 452.484 226.786C451.176 227.069 449.871 227.199 448.583 227.204C425.457 232.196 406.1 247.175 395.33 267.369C412.255 282.519 435.495 290.246 459.395 286.952C461.314 286.277 463.375 285.889 465.532 285.889C476.574 283.491 483.57 272.667 481.149 261.71Z" fill="url(#paint21_linear_221_2)"/>
<path d="M360.862 66H367.767C411.607 66 447.146 101.253 447.146 144.74V207.149C447.146 217.221 455.377 225.386 465.531 225.386C476.833 225.386 486 234.476 486 245.693V265.582C486 276.796 476.836 285.889 465.531 285.889C421.688 285.889 386.149 250.636 386.149 207.149V144.74C386.149 134.668 377.92 126.503 367.767 126.503H360.862V66Z" fill="url(#paint22_linear_221_2)"/>
<path d="M393.669 431.001C393.615 431.047 393.558 431.095 393.507 431.144C400.083 426.682 406.017 421.171 410.833 414.78C415.693 408.417 419.484 401.252 422.107 393.693C424.657 386.107 426.057 378.133 426.086 370.157C426.047 362.221 425.759 354.349 425.369 346.441V368.074C425.366 393.803 412.912 416.633 393.669 431.001Z" fill="url(#paint23_linear_221_2)"/>
<path d="M393.669 80.275C393.615 80.2266 393.558 80.1782 393.507 80.1298C400.083 84.5909 406.017 90.1022 410.833 96.4956C415.693 102.856 419.484 110.022 422.107 117.583C424.657 125.169 426.057 133.14 426.086 141.119C426.047 149.055 425.759 156.927 425.369 164.832V143.202C425.366 117.473 412.912 94.6398 393.669 80.275Z" fill="url(#paint24_linear_221_2)"/>
<path d="M425.365 143.205V187.342H447.145V144.742C447.145 101.255 411.606 66.0026 367.766 66.0026H361.624C397.976 73.2067 425.365 105.028 425.365 143.205Z" fill="url(#paint25_linear_221_2)"/>
<defs>
<linearGradient id="paint0_linear_221_2" x1="179.89" y1="139.621" x2="286.351" y2="139.621" gradientUnits="userSpaceOnUse">
<stop stop-color="#2F80ED"/>
<stop offset="1" stop-color="#56CCF2"/>
</linearGradient>
<linearGradient id="paint1_linear_221_2" x1="180.181" y1="139.624" x2="286.35" y2="139.624" gradientUnits="userSpaceOnUse">
<stop stop-color="#56CCF2"/>
<stop offset="1" stop-color="#2F80ED"/>
</linearGradient>
<linearGradient id="paint2_linear_221_2" x1="223.17" y1="140.974" x2="286.35" y2="140.974" gradientUnits="userSpaceOnUse">
<stop stop-color="#56CCF2"/>
<stop offset="1" stop-color="#2F80ED"/>
</linearGradient>
<linearGradient id="paint3_linear_221_2" x1="331.82" y1="139.624" x2="225.358" y2="139.624" gradientUnits="userSpaceOnUse">
<stop stop-color="#56CCF2"/>
<stop offset="1" stop-color="#2F80ED"/>
</linearGradient>
<linearGradient id="paint4_linear_221_2" x1="331.527" y1="139.624" x2="225.359" y2="139.624" gradientUnits="userSpaceOnUse">
<stop stop-color="#2F80ED"/>
<stop offset="1" stop-color="#56CCF2"/>
</linearGradient>
<linearGradient id="paint5_linear_221_2" x1="251.373" y1="125.491" x2="282.084" y2="125.491" gradientUnits="userSpaceOnUse">
<stop stop-color="#3A96EE"/>
<stop offset="0.4971" stop-color="#56CCF2"/>
<stop offset="1" stop-color="#40A1EF"/>
</linearGradient>
<linearGradient id="paint6_linear_221_2" x1="88.5686" y1="285.889" x2="88.5686" y2="66.0013" gradientUnits="userSpaceOnUse">
<stop stop-color="#56CCF2"/>
<stop offset="1" stop-color="#2F80ED"/>
</linearGradient>
<linearGradient id="paint7_linear_221_2" x1="88.1872" y1="285.889" x2="88.1872" y2="66.0013" gradientUnits="userSpaceOnUse">
<stop stop-color="#2F80ED"/>
<stop offset="1" stop-color="#56CCF2"/>
</linearGradient>
<linearGradient id="paint8_linear_221_2" x1="73.5235" y1="284.963" x2="73.5235" y2="223.574" gradientUnits="userSpaceOnUse">
<stop stop-color="#56CCF2"/>
<stop offset="1" stop-color="#2F80ED"/>
</linearGradient>
<linearGradient id="paint9_linear_221_2" x1="88.5701" y1="445.276" x2="88.5701" y2="225.388" gradientUnits="userSpaceOnUse">
<stop stop-color="#2F80ED"/>
<stop offset="1" stop-color="#56CCF2"/>
</linearGradient>
<linearGradient id="paint10_linear_221_2" x1="116.164" y1="77.7213" x2="84.0313" y2="151.654" gradientUnits="userSpaceOnUse">
<stop stop-color="#3388EE"/>
<stop offset="0.4971" stop-color="#56CCF2"/>
<stop offset="1" stop-color="#3B98EF"/>
</linearGradient>
<linearGradient id="paint11_linear_221_2" x1="116.163" y1="433.55" x2="84.03" y2="359.617" gradientUnits="userSpaceOnUse">
<stop/>
<stop offset="0.4971" stop-color="#56CCF2"/>
<stop offset="1"/>
</linearGradient>
<linearGradient id="paint12_linear_221_2" x1="107.617" y1="445.277" x2="107.617" y2="344.966" gradientUnits="userSpaceOnUse">
<stop stop-color="#56CCF2"/>
<stop offset="1" stop-color="#3FA0EF"/>
</linearGradient>
<linearGradient id="paint13_linear_221_2" x1="332.112" y1="371.652" x2="225.651" y2="371.652" gradientUnits="userSpaceOnUse">
<stop stop-color="#2F80ED"/>
<stop offset="1" stop-color="#56CCF2"/>
</linearGradient>
<linearGradient id="paint14_linear_221_2" x1="331.821" y1="371.653" x2="225.651" y2="371.653" gradientUnits="userSpaceOnUse">
<stop stop-color="#56CCF2"/>
<stop offset="1" stop-color="#2F80ED"/>
</linearGradient>
<linearGradient id="paint15_linear_221_2" x1="288.83" y1="370.302" x2="225.651" y2="370.302" gradientUnits="userSpaceOnUse">
<stop stop-color="#56CCF2"/>
<stop offset="1" stop-color="#2F80ED"/>
</linearGradient>
<linearGradient id="paint16_linear_221_2" x1="180.183" y1="371.651" x2="286.645" y2="371.651" gradientUnits="userSpaceOnUse">
<stop stop-color="#2F80ED"/>
<stop offset="1" stop-color="#56CCF2"/>
</linearGradient>
<linearGradient id="paint17_linear_221_2" x1="180.473" y1="371.653" x2="286.644" y2="371.653" gradientUnits="userSpaceOnUse">
<stop stop-color="#56CCF2"/>
<stop offset="1" stop-color="#2F80ED"/>
</linearGradient>
<linearGradient id="paint18_linear_221_2" x1="260.626" y1="385.786" x2="229.918" y2="385.786" gradientUnits="userSpaceOnUse">
<stop stop-color="#3A96EE"/>
<stop offset="0.4971" stop-color="#56CCF2"/>
<stop offset="1" stop-color="#47B0F0"/>
</linearGradient>
<linearGradient id="paint19_linear_221_2" x1="423.432" y1="225.387" x2="423.432" y2="445.275" gradientUnits="userSpaceOnUse">
<stop stop-color="#56CCF2"/>
<stop offset="1" stop-color="#2F80ED"/>
</linearGradient>
<linearGradient id="paint20_linear_221_2" x1="423.813" y1="225.387" x2="423.813" y2="445.275" gradientUnits="userSpaceOnUse">
<stop stop-color="#2F80ED"/>
<stop offset="1" stop-color="#56CCF2"/>
</linearGradient>
<linearGradient id="paint21_linear_221_2" x1="438.481" y1="226.314" x2="438.481" y2="287.702" gradientUnits="userSpaceOnUse">
<stop stop-color="#56CCF2"/>
<stop offset="1" stop-color="#2F80ED"/>
</linearGradient>
<linearGradient id="paint22_linear_221_2" x1="423.432" y1="66.0013" x2="423.432" y2="285.889" gradientUnits="userSpaceOnUse">
<stop stop-color="#2F80ED"/>
<stop offset="1" stop-color="#56CCF2"/>
</linearGradient>
<linearGradient id="paint23_linear_221_2" x1="395.837" y1="433.55" x2="427.97" y2="359.618" gradientUnits="userSpaceOnUse">
<stop stop-color="#52C4F1"/>
<stop offset="0.4971" stop-color="#56CCF2"/>
<stop offset="1" stop-color="#4BB6F1"/>
</linearGradient>
<linearGradient id="paint24_linear_221_2" x1="395.835" y1="77.7236" x2="427.968" y2="151.657" gradientUnits="userSpaceOnUse">
<stop/>
<stop offset="0.4971" stop-color="#56CCF2"/>
<stop offset="1"/>
</linearGradient>
<linearGradient id="paint25_linear_221_2" x1="404.386" y1="66.0013" x2="404.386" y2="166.311" gradientUnits="userSpaceOnUse">
<stop stop-color="#56CCF2"/>
<stop offset="1" stop-color="#43A7EF"/>
</linearGradient>
</defs>
</svg>
